#!OML:ASF E:\Steps\Project 1\Capture day 1\Session 2\Subject.ASF
:FULLY-SPECIFIED
:DEGREES
450
root 7.95182 15.0915 13.2975 -145.378 -1.46473 169.083
lowerback -5.7381 -5.34073 -4.93086
upperback 3.61595 -6.83344 -0.938213
thorax 7.47503 -3.63076 0.892315
lowerneck -0.728423 2.55548 -2.76553
upperneck -4.49793 3.40445 -3.42428
head -1.24619 1.84887 -0.627282
rclavicle 3.69739e-014 1.98785e-016
rhumerus -40.7207 24.1268 -77.1012
rradius 44.8471
rwrist -10.0335
rhand -7.31106 -46.0762
rfingers 7.12502
rthumb 18.5716 -435.21
lclavicle 3.69739e-014 1.98785e-016
lhumerus -21.6959 -24.9839 63.6805
lradius 47.9148
lwrist 6.30783
lhand -25.1855 -15.0945
lfingers 7.12502
lthumb 1.33242 14.8811
rfemur -83.6594 -19.9302 -2.97815
rtibia 65.5682
rfoot -22.4022 -12.9146
rtoes -32.5071
lfemur -15.6314 -16.8839 3.75427
ltibia 28.4559
lfoot 2.8912 8.58164
ltoes -42.0778
451
root 8.04125 15.1252 13.2362 -145.063 -1.57495 168.609
lowerback -5.50826 -5.24538 -4.38413
upperback 3.84688 -6.76877 -1.10019
thorax 7.49648 -3.57856 0.445263
lowerneck -1.04525 2.448 -2.40944
upperneck -5.17161 3.27559 -3.75103
head -1.3946 1.81091 -0.790327
rclavicle -3.27001e-014 4.96962e-016
rhumerus -39.2996 24.1679 -76.2466
rradius 45.388
rwrist -10.2407
rhand -7.73472 -46.1254
rfingers 7.12502
rthumb 18.1641 -435.297
lclavicle -3.27001e-014 4.96962e-016
lhumerus -19.9402 -26.0899 62.7975
lradius 48.6695
lwrist 6.50321
lhand -24.8705 -15.4769
lfingers 7.12502
lthumb 1.63661 14.4966
rfemur -83.6705 -20.0463 -3.08107
rtibia 65.7297
rfoot -22.9535 -13.3087
rtoes -32.9855
lfemur -15.6589 -17.1788 3.6595
ltibia 27.3698
lfoot 4.87249 9.63946
ltoes -39.8069
452
root 8.13044 15.1586 13.1699 -144.764 -1.70288 168.109
lowerback -5.27713 -5.21547 -3.98534
upperback 3.93428 -6.77646 -1.13441
thorax 7.40278 -3.56529 0.211352
lowerneck -1.03481 2.46018 -2.34641
upperneck -5.58738 3.2898 -3.92198
head -1.52497 1.83774 -0.860937
rclavicle 5.86415e-015 -1.07841e-014
rhumerus -38.0272 24.5558 -75.3018
rradius 45.8071
rwrist -10.7645
rhand -7.91178 -46.186
rfingers 7.12502
rthumb 17.9937 -435.374
lclavicle 5.86415e-015 -1.07841e-014
lhumerus -18.5284 -27.16 62.2228
lradius 49.3713
lwrist 6.78402
lhand -24.6602 -15.6125
lfingers 7.12502
lthumb 1.83979 14.3593
rfemur -83.5267 -20.317 -3.15899
rtibia 65.755
rfoot -23.45 -13.3265
rtoes -32.3828
lfemur -15.6271 -17.362 3.52461
ltibia 26.106
lfoot 7.26684 10.5487
ltoes -39.8764
453
root 8.2238 15.2005 13.1081 -144.339 -1.86092 167.636
lowerback -5.08094 -5.23368 -3.64471
upperback 3.96946 -6.84028 -1.091
thorax 7.29284 -3.58158 0.0824639
lowerneck -1.13395 2.47201 -2.27147
upperneck -5.9618 3.30799 -4.24993
head -1.62135 1.87035 -0.980681
rclavicle 3.1057e-014 2.29969e-014
rhumerus -36.6073 24.8637 -74.2036
rradius 46.2055
rwrist -11.4182
rhand -7.65204 -46.0344
rfingers 7.12502
rthumb 18.2436 -435.199
lclavicle 3.1057e-014 2.29969e-014
lhumerus -17.1565 -27.8898 61.714
lradius 50.0071
lwrist 6.90475
lhand -24.6603 -15.536
lfingers 7.12502
lthumb 1.83966 14.4358
rfemur -83.49 -20.5224 -3.20962
rtibia 65.6804
rfoot -23.8297 -13.41
rtoes -32.2766
lfemur -15.819 -17.1828 3.54584
ltibia 24.8452
lfoot 9.61277 11.1664
ltoes -39.2412
454
root 8.32387 15.2493 13.0529 -143.682 -2.04782 167.184
lowerback -5.02968 -5.29624 -3.36758
upperback 3.88342 -6.94531 -1.01653
thorax 7.15007 -3.61702 0.00892989
lowerneck -1.16309 2.46106 -2.17255
upperneck -6.29001 3.29025 -4.59842
head -1.71546 1.88422 -1.11204
rclavicle -1.35174e-014 7.50412e-015
rhumerus -35.1179 25.0128 -73.0635
rradius 46.4317
rwrist -11.7822
rhand -7.5381 -45.6699
rfingers 7.12502
rthumb 18.3532 -434.824
lclavicle -1.35174e-014 7.50412e-015
lhumerus -15.9399 -28.2965 61.2287
lradius 50.5636
lwrist 6.99482
lhand -24.8158 -15.9599
lfingers 7.12502
lthumb 1.68946 14.0131
rfemur -83.7785 -20.7124 -3.11296
rtibia 65.6747
rfoot -24.1408 -13.8477
rtoes -33.1938
lfemur -16.349 -17.1451 3.74035
ltibia 23.7074
lfoot 11.4164 12.4647
ltoes -34.8655
455
root 8.42324 15.2964 12.9923 -143.113 -2.09797 166.553
lowerback -5.04087 -5.38526 -3.39526
upperback 3.76806 -7.05994 -1.01277
thorax 7.0415 -3.67185 0.0209636
lowerneck -0.966382 2.49078 -2.15129
upperneck -6.60156 3.31261 -4.84444
head -1.84652 1.91658 -1.20358
rclavicle 1.30204e-014 -1.78906e-014
rhumerus -33.6933 25.1327 -71.9535
rradius 46.5323
rwrist -11.8892
rhand -7.23897 -46.0327
rfingers 7.12502
rthumb 18.641 -435.16
lclavicle 1.30204e-014 -1.78906e-014
lhumerus -15.0005 -28.6507 60.7899
lradius 51.1692
lwrist 7.1694
lhand -24.8664 -16.3204
lfingers 7.12502
lthumb 1.64057 13.6531
rfemur -84.0295 -21.0607 -3.12156
rtibia 65.7159
rfoot -24.3897 -14.0718
rtoes -33.4629
lfemur -16.6913 -17.3312 3.61759
ltibia 22.5194
lfoot 13.0202 14.1136
ltoes -29.1727
456
root 8.51666 15.341 12.9194 -142.722 -2.03498 165.867
lowerback -5.14303 -5.48716 -3.55346
upperback 3.66342 -7.17888 -1.03137
thorax 7.01105 -3.7352 0.0688295
lowerneck -0.561654 2.56287 -2.19502
upperneck -6.8475 3.37482 -5.10319
head -1.99423 1.96849 -1.29268
rclavicle -1.07344e-014 -1.92821e-014
rhumerus -32.4399 25.227 -70.8328
rradius 46.7232
rwrist -11.7984
rhand -6.64373 -46.6093
rfingers 7.12502
rthumb 19.2134 -435.68
lclavicle -1.07344e-014 -1.92821e-014
lhumerus -14.4274 -28.8643 60.5393
lradius 51.8313
lwrist 7.50503
lhand -24.6891 -16.3659
lfingers 7.12502
lthumb 1.81185 13.6061
rfemur -84.0265 -21.3596 -3.30977
rtibia 65.6778
rfoot -24.6104 -14.1045
rtoes -33.0273
lfemur -16.7761 -17.1492 3.2273
ltibia 21.3925
lfoot 14.8426 14.923
ltoes -27.2369
457
root 8.60632 15.3849 12.8414 -142.267 -1.91317 165.452
lowerback -5.43371 -5.4357 -3.41573
upperback 3.65323 -7.10338 -1.07268
thorax 7.14142 -3.68835 -0.0692068
lowerneck -0.498513 2.55589 -2.17779
upperneck -7.08158 3.35881 -5.26921
head -2.07973 1.97773 -1.35483
rclavicle 8.34896e-015 -3.1408e-014
rhumerus -30.8914 24.8618 -69.6268
rradius 46.6686
rwrist -11.6557
rhand -6.84201 -46.3019
rfingers 7.12502
rthumb 19.0228 -435.392
lclavicle 8.34896e-015 -3.1408e-014
lhumerus -13.5219 -29.1169 60.2107
lradius 52.3898
lwrist 8.13538
lhand -24.3886 -16.6311
lfingers 7.12502
lthumb 2.1021 13.3383
rfemur -84.2181 -21.4677 -3.18236
rtibia 65.7288
rfoot -24.8711 -14.3492
rtoes -33.2771
lfemur -16.8276 -16.7431 3.00868
ltibia 20.3573
lfoot 16.284 15.7102
ltoes -25.7403
458
root 8.69473 15.4303 12.7695 -141.76 -1.70114 165.2
lowerback -5.73527 -5.37016 -3.24036
upperback 3.623 -7.01145 -1.0726
thorax 7.25739 -3.63083 -0.181844
lowerneck -0.607096 2.58671 -2.20631
upperneck -7.21496 3.4055 -5.40414
head -2.10186 2.01383 -1.39456
rclavicle -2.90226e-014 -5.36719e-015
rhumerus -29.0995 24.3703 -68.4016
rradius 46.3503
rwrist -11.3173
rhand -7.70726 -45.976
rfingers 7.12502
rthumb 18.1905 -435.145
lclavicle -2.90226e-014 -5.36719e-015
lhumerus -12.6073 -29.1558 59.9829
lradius 52.7873
lwrist 8.57543
lhand -24.3623 -16.6095
lfingers 7.12502
lthumb 2.1275 13.3596
rfemur -84.6037 -21.4907 -2.83992
rtibia 65.757
rfoot -25.0505 -14.5389
rtoes -33.7503
lfemur -16.9346 -16.4315 2.88178
ltibia 19.5059
lfoot 17.2529 17.1645
ltoes -21.766
459
root 8.78449 15.4818 12.7045 -141.421 -1.38524 164.825
lowerback -5.59264 -5.19709 -3.282
upperback 3.55599 -6.77801 -1.19173
thorax 7.08603 -3.51683 -0.23259
lowerneck -0.822991 2.51277 -2.05693
upperneck -7.3292 3.32435 -5.45155
head -2.09927 1.97764 -1.43192
rclavicle -1.82882e-014 2.98177e-014
rhumerus -27.7347 23.1461 -67.3352
rradius 46.2244
rwrist -10.4723
rhand -8.12139 -46.0559
rfingers 7.12502
rthumb 17.792 -435.262
lclavicle -1.82882e-014 2.98177e-014
lhumerus -11.5197 -29.5288 59.7078
lradius 53.0901
lwrist 8.93368
lhand -24.3311 -15.975
lfingers 7.12502
lthumb 2.15761 13.9938
rfemur -84.7052 -21.3829 -2.83661
rtibia 65.5786
rfoot -25.186 -14.5239
rtoes -33.7324
lfemur -17.0349 -16.3318 2.50549
ltibia 18.9466
lfoot 17.8157 19.0179
ltoes -17.1116
460
root 8.87645 15.5359 12.6416 -141.142 -1.10639 164.458
lowerback -5.37036 -4.84718 -3.2788
upperback 3.53031 -6.31288 -1.50811
thorax 6.87858 -3.28678 -0.47963
lowerneck -1.10162 2.33548 -1.46659
upperneck -7.30415 3.10993 -5.38373
head -2.03796 1.85046 -1.50151
rclavicle -8.34896e-015 -4.09496e-014
rhumerus -26.7444 20.8935 -66.6171
rradius 46.0889
rwrist -9.42444
rhand -8.34595 -46.1573
rfingers 7.12502
rthumb 17.5759 -435.383
lclavicle -8.34896e-015 -4.09496e-014
lhumerus -10.2616 -30.537 59.0822
lradius 53.6394
lwrist 9.51637
lhand -24.2789 -15.4138
lfingers 7.12502
lthumb 2.20802 14.5545
rfemur -84.6744 -21.2601 -2.82876
rtibia 65.3058
rfoot -25.3862 -14.3958
rtoes -33.336
lfemur -17.1554 -16.3205 2.10607
ltibia 18.4631
lfoot 18.1076 21.2151
ltoes -12.7444
461
root 8.96659 15.5892 12.5761 -140.83 -1.00986 164.239
lowerback -5.63064 -5.10054 -3.27185
upperback 3.37304 -6.64052 -1.35464
thorax 6.88721 -3.44337 -0.379952
lowerneck -0.580376 2.64187 -1.88115
upperneck -7.15814 3.47383 -5.52685
head -2.07976 2.03942 -1.48938
rclavicle -3.18055e-015 -5.36719e-014
rhumerus -25.1717 20.6693 -65.7581
rradius 45.8161
rwrist -8.95342
rhand -9.04134 -47.0274
rfingers 7.12502
rthumb 16.9066 -436.312
lclavicle -3.18055e-015 -5.36719e-014
lhumerus -10.8796 -29.7669 59.4736
lradius 54.3667
lwrist 9.6051
lhand -24.2958 -15.006
lfingers 7.12502
lthumb 2.19172 14.9625
rfemur -84.6308 -21.2418 -2.52676
rtibia 64.9513
rfoot -25.4586 -14.2915
rtoes -32.7376
lfemur -17.4342 -16.019 1.88996
ltibia 18.2022
lfoot 18.5856 22.9889
ltoes -11.5725
462
root 9.05624 15.6427 12.5069 -140.561 -0.929379 164.128
lowerback -5.48984 -4.85617 -2.98277
upperback 3.36439 -6.33622 -1.57456
thorax 6.72983 -3.27901 -0.711725
lowerneck -1.10486 2.50964 -1.36377
upperneck -7.08649 3.33594 -5.42071
head -1.95943 1.94907 -1.52857
rclavicle -3.18055e-014 -3.26007e-014
rhumerus -24.2284 18.8353 -65.3428
rradius 45.6585
rwrist -8.60242
rhand -10.0548 -47.757
rfingers 7.12502
rthumb 15.9309 -437.122
lclavicle -3.18055e-014 -3.26007e-014
lhumerus -10.1447 -30.2677 59.024
lradius 54.9497
lwrist 9.64276
lhand -23.6699 -14.6849
lfingers 7.12502
lthumb 2.79614 15.2766
rfemur -84.5491 -21.0411 -2.18451
rtibia 64.6631
rfoot -25.5142 -14.3471
rtoes -32.5609
lfemur -17.7738 -15.3613 1.71429
ltibia 18.2119
lfoot 18.7433 24.4129
ltoes -10.1884
463
root 9.14633 15.6955 12.4363 -140.346 -0.816929 164.068
lowerback -5.53849 -4.63508 -2.75753
upperback 3.45938 -6.05234 -1.72283
thorax 6.81242 -3.1288 -0.964861
lowerneck -1.35827 2.32219 -1.04012
upperneck -7.35098 3.1052 -5.46016
head -2.00113 1.84044 -1.5948
rclavicle 2.8625e-014 9.54166e-015
rhumerus -23.3578 17.2318 -64.8813
rradius 45.9059
rwrist -8.61247
rhand -11.4047 -47.0967
rfingers 7.12502
rthumb 14.6306 -436.561
lclavicle 2.8625e-014 9.54166e-015
lhumerus -9.39959 -30.6695 58.6387
lradius 55.456
lwrist 9.64485
lhand -23.3268 -14.8637
lfingers 7.12502
lthumb 3.1275 15.0931
rfemur -84.4985 -20.6788 -1.83895
rtibia 64.6491
rfoot -25.8626 -14.3672
rtoes -32.3685
lfemur -18.1071 -14.7766 1.52573
ltibia 18.4281
lfoot 18.0044 26.2787
ltoes -4.85216
